<svg width="60" height="36" viewBox="0 0 60 36" fill="none" xmlns="http://www.w3.org/2000/svg">
<path d="M46.9947 16.8236L47.1766 17.9733L48.3314 17.8264C53.5765 17.1591 56.9665 20.5819 57.736 24.5432C58.1215 26.5275 57.8299 28.5904 56.8064 30.2853C55.8102 31.9349 54.0703 33.3209 51.3738 33.94H11.3834C5.75841 33.9028 1.92543 28.3587 2.1087 22.5781C2.19806 19.7597 3.26612 17.0444 5.47453 15.1069C7.67769 13.174 11.155 11.8944 16.293 12.22L17.3902 12.2895L17.5553 11.2026C17.9277 8.75076 19.6324 6.39742 22.2181 4.60143C24.792 2.81355 28.1266 1.66375 31.5163 1.56645C34.8943 1.46947 38.2835 2.41642 41.05 4.76412C43.8132 7.10903 46.0643 10.9444 46.9947 16.8236Z" fill="white" stroke="black" stroke-width="2.4"/>
</svg>
