<svg width="60" height="58" viewBox="0 0 60 58" fill="none" xmlns="http://www.w3.org/2000/svg">
<path d="M46.9453 16.8333L47.1348 18.031L48.3377 17.878C53.5527 17.2145 56.9216 20.6151 57.687 24.5547C58.0704 26.5283 57.78 28.5784 56.7636 30.2614C55.7757 31.8974 54.0493 33.275 51.3682 33.892H11.3837C5.79682 33.855 1.97595 28.3452 2.15868 22.5817C2.24767 19.7748 3.31113 17.0733 5.50751 15.1464C7.69842 13.2242 11.1617 11.9469 16.2899 12.2719L17.4328 12.3443L17.6047 11.2121C17.9744 8.77789 19.6683 6.43532 22.2466 4.64445C24.8127 2.86203 28.1378 1.7154 31.5177 1.61838C34.8855 1.5217 38.262 2.4657 41.0177 4.80419C43.7699 7.13979 46.0164 10.9633 46.9453 16.8333Z" stroke="black" stroke-width="2.5"/>
<path d="M51.2367 49.2348C51.2367 50.4911 50.8419 51.1111 50.39 51.461C49.8786 51.8569 49.0641 52.085 47.9406 52.085C46.8171 52.085 46.0026 51.8569 45.4912 51.461C45.0393 51.1111 44.6445 50.4911 44.6445 49.2348C44.6445 48.0573 45.0764 47.2461 45.9759 45.6359C46.5404 44.6254 47.2229 43.3984 47.9223 41.7225C48.5948 43.35 49.2736 44.566 49.8446 45.5775C50.7742 47.2244 51.2367 48.0668 51.2367 49.2348Z" stroke="black" stroke-width="2.5"/>
<path d="M46.1425 50.3558C46.1421 50.3567 46.138 50.3522 46.131 50.3393C46.1393 50.3484 46.1428 50.3549 46.1425 50.3558Z" stroke="black" stroke-width="2.5"/>
<path d="M32.3593 54.1077C32.3593 55.0514 32.067 55.465 31.7807 55.6867C31.4349 55.9544 30.8492 56.1324 29.9785 56.1324C29.1077 56.1324 28.5221 55.9544 28.1763 55.6867C27.89 55.465 27.5977 55.0514 27.5977 54.1077C27.5977 53.2428 27.9058 52.6507 28.629 51.3561C29.0194 50.6572 29.4818 49.8263 29.9631 48.7452C30.4281 49.7934 30.8868 50.6139 31.28 51.3104C32.0291 52.6375 32.3593 53.2522 32.3593 54.1077Z" stroke="black" stroke-width="2.5"/>
<mask id="path-5-inside-1_26_647" fill="white">
<path d="M28.6327 50.0411C27.5736 51.5011 26.7211 55.6653 28.2505 55.9173C29.3014 55.5178 27.949 54.5738 28.6327 50.0411Z"/>
</mask>
<path d="M28.6327 50.0411L31.1048 50.414L26.6091 48.5732L28.6327 50.0411ZM28.2505 55.9173L27.844 58.384L28.5089 58.4936L29.1388 58.2542L28.2505 55.9173ZM26.6091 48.5732C25.747 49.7616 25.1748 51.6215 24.9896 53.1271C24.8951 53.8955 24.8638 54.8469 25.0991 55.7371C25.3328 56.621 26.0544 58.0891 27.844 58.384L28.657 53.4506C29.0831 53.5208 29.4445 53.7483 29.6807 54.0232C29.8817 54.2572 29.9308 54.4507 29.9331 54.4592C29.938 54.4778 29.9227 54.4247 29.9195 54.2781C29.9165 54.1386 29.9253 53.9565 29.9522 53.7374C30.0068 53.294 30.1233 52.7973 30.2768 52.3484C30.4396 51.8721 30.5941 51.5949 30.6564 51.5091L26.6091 48.5732ZM29.1388 58.2542C29.4881 58.1214 29.982 57.8765 30.4074 57.3989C30.8642 56.8861 31.0603 56.3119 31.1309 55.8316C31.1928 55.4101 31.1617 55.0332 31.1399 54.8215C31.1175 54.604 31.0788 54.3485 31.0544 54.1771C30.9552 53.4799 30.8101 52.3678 31.1048 50.414L26.1607 49.6683C25.7717 52.2471 25.9609 53.8733 26.1043 54.8812C26.1405 55.136 26.1567 55.2423 26.1662 55.3337C26.1762 55.431 26.1537 55.3104 26.184 55.1044C26.223 54.8397 26.3469 54.4402 26.6738 54.0732C26.9694 53.7413 27.2757 53.6133 27.3622 53.5804L29.1388 58.2542Z" fill="black" mask="url(#path-5-inside-1_26_647)"/>
<path d="M14.6751 50.5333C14.6751 51.8013 14.2765 52.429 13.8184 52.7836C13.3008 53.1843 12.4778 53.4143 11.3448 53.4143C10.2119 53.4143 9.38893 53.1843 8.87134 52.7836C8.41326 52.429 8.01465 51.8013 8.01465 50.5333C8.01465 49.3442 8.45117 48.5248 9.35723 46.9028C9.92818 45.8807 10.619 44.6388 11.3264 42.9401C12.0066 44.5898 12.6937 45.8207 13.2713 46.8439C14.2077 48.5028 14.6751 49.3536 14.6751 50.5333Z" stroke="black" stroke-width="2.5"/>
<path d="M9.5256 51.6685C9.52527 51.6695 9.52095 51.6649 9.51365 51.6515C9.52228 51.6609 9.52593 51.6675 9.5256 51.6685Z" stroke="black" stroke-width="2.5"/>
</svg>
