<svg width="73" height="71" viewBox="0 0 73 71" fill="none" xmlns="http://www.w3.org/2000/svg">
<path d="M37.069 0.39507C36.6619 0.401206 36.2739 0.568695 35.9902 0.860747C35.7064 1.1528 35.5502 1.54553 35.5559 1.95267V14.8967C35.553 15.1002 35.5906 15.3023 35.6666 15.4912C35.7425 15.6801 35.8552 15.852 35.9982 15.997C36.1411 16.1419 36.3114 16.2571 36.4993 16.3356C36.6871 16.4142 36.8886 16.4546 37.0922 16.4546C37.2958 16.4546 37.4974 16.4142 37.6852 16.3356C37.873 16.2571 38.0433 16.1419 38.1862 15.997C38.3292 15.852 38.4419 15.6801 38.5178 15.4912C38.5938 15.3023 38.6314 15.1002 38.6286 14.8967V1.95267C38.6314 1.74718 38.593 1.54321 38.5156 1.35283C38.4382 1.16245 38.3235 0.989531 38.1781 0.844301C38.0327 0.69907 37.8596 0.584482 37.6691 0.50732C37.4786 0.430157 37.2745 0.391988 37.069 0.39507ZM29.7315 6.33067C29.4911 6.3252 29.2527 6.37624 29.0356 6.47967C28.8186 6.5831 28.6288 6.73603 28.4816 6.92618C28.3344 7.11632 28.2339 7.33835 28.1881 7.57442C28.1424 7.81049 28.1526 8.054 28.2182 8.28537L30.2842 15.9957C30.3333 16.1939 30.4214 16.3803 30.5434 16.544C30.6655 16.7078 30.8189 16.8456 30.9948 16.9493C31.1706 17.0531 31.3654 17.1207 31.5678 17.1484C31.7701 17.176 31.9759 17.163 32.1731 17.1101C32.3704 17.0573 32.5551 16.9657 32.7165 16.8406C32.878 16.7155 33.0129 16.5595 33.1133 16.3818C33.2137 16.204 33.2777 16.0079 33.3015 15.8051C33.3253 15.6023 33.3085 15.3968 33.252 15.2006L31.186 7.49028C31.1036 7.16456 30.9168 6.8748 30.6541 6.66536C30.3914 6.45593 30.0673 6.33836 29.7315 6.33067ZM44.4055 6.33267C44.078 6.35022 43.7648 6.47207 43.5116 6.68039C43.2584 6.8887 43.0784 7.17256 42.9981 7.49047L40.9312 15.2008C40.8289 15.5934 40.886 16.0106 41.0901 16.3612C41.2942 16.7119 41.6287 16.9676 42.0207 17.0726C42.4126 17.1775 42.8301 17.1232 43.1822 16.9215C43.5342 16.7198 43.7922 16.3871 43.8999 15.9959L45.9659 8.28556C46.0219 8.08776 46.0376 7.88073 46.0121 7.67673C45.9867 7.47274 45.9205 7.27592 45.8176 7.09795C45.7147 6.91998 45.5772 6.76447 45.4131 6.64062C45.249 6.51678 45.0617 6.42712 44.8624 6.37696C44.7132 6.33941 44.5591 6.32448 44.4055 6.33267ZM51.3922 9.18557C51.1166 9.18327 50.8455 9.25511 50.6073 9.39356C50.3691 9.53201 50.1725 9.73198 50.0381 9.97251L46.0462 16.885C45.9453 17.0597 45.8799 17.2526 45.8535 17.4527C45.8271 17.6528 45.8404 17.856 45.8927 18.0509C45.9981 18.4446 46.2555 18.7802 46.6084 18.984C46.9613 19.1878 47.3808 19.2431 47.7744 19.1376C48.168 19.0322 48.5037 18.7747 48.7075 18.4218L52.6983 11.5084C52.8034 11.3319 52.8721 11.1361 52.9003 10.9325C52.9284 10.729 52.9155 10.5219 52.8622 10.3234C52.8089 10.125 52.7163 9.93922 52.59 9.77718C52.4636 9.61514 52.306 9.48008 52.1266 9.38001C51.9019 9.25472 51.6494 9.18789 51.3922 9.18557ZM22.7442 9.18649C22.4779 9.19687 22.2189 9.2763 21.9927 9.417C21.7664 9.55769 21.5806 9.75481 21.4535 9.989C21.3264 10.2232 21.2625 10.4864 21.2678 10.7528C21.2732 11.0192 21.3477 11.2796 21.4842 11.5085L25.475 18.421C25.574 18.5991 25.7076 18.7557 25.8678 18.8817C26.028 19.0077 26.2116 19.1006 26.4081 19.155C26.6045 19.2093 26.8098 19.224 27.012 19.1982C27.2142 19.1724 27.4092 19.1067 27.5857 19.0048C27.7623 18.9029 27.9168 18.767 28.0402 18.6048C28.1637 18.4426 28.2536 18.2575 28.3049 18.0602C28.3561 17.863 28.3676 17.6575 28.3386 17.4557C28.3096 17.254 28.2408 17.06 28.1362 16.8851L24.1454 9.97259C24.0071 9.72505 23.803 9.52059 23.5557 9.38186C23.3084 9.24313 23.0275 9.17548 22.7442 9.18649ZM13.3768 10.2177C13.071 10.2176 12.7721 10.3088 12.5184 10.4796C12.2647 10.6504 12.0678 10.893 11.9528 11.1763C11.8378 11.4596 11.8099 11.7709 11.8728 12.0701C11.9357 12.3694 12.0864 12.6431 12.3058 12.8562L21.4588 22.0083C21.6006 22.1544 21.7702 22.2709 21.9575 22.351C22.1448 22.431 22.3461 22.473 22.5498 22.4745C22.7535 22.476 22.9555 22.437 23.144 22.3598C23.3324 22.2825 23.5037 22.1686 23.6477 22.0245C23.7917 21.8805 23.9057 21.7093 23.9829 21.5208C24.0602 21.3323 24.0992 21.1303 24.0977 20.9267C24.0962 20.723 24.0542 20.5216 23.9741 20.3343C23.8941 20.147 23.7776 19.9775 23.6315 19.8356L14.4794 10.6835C14.3361 10.536 14.1646 10.4188 13.9752 10.3388C13.7858 10.2588 13.5824 10.2176 13.3768 10.2177ZM60.7598 10.2186C60.3605 10.2304 59.9816 10.3971 59.7033 10.6835L50.5502 19.8365C50.4041 19.9784 50.2876 20.1479 50.2076 20.3353C50.1275 20.5226 50.0855 20.7239 50.084 20.9276C50.0825 21.1313 50.1215 21.3333 50.1988 21.5217C50.276 21.7102 50.39 21.8814 50.534 22.0255C50.678 22.1695 50.8493 22.2835 51.0378 22.3607C51.2262 22.438 51.4282 22.477 51.6319 22.4755C51.8356 22.474 52.0369 22.432 52.2242 22.3519C52.4115 22.2719 52.5811 22.1554 52.7229 22.0092L61.876 12.8562C62.0235 12.713 62.1409 12.5416 62.221 12.3522C62.3011 12.1628 62.3424 11.9592 62.3424 11.7536C62.3424 11.5479 62.3011 11.3444 62.221 11.155C62.1409 10.9656 62.0235 10.7942 61.876 10.6509C61.7284 10.508 61.5537 10.396 61.3621 10.3218C61.1705 10.2475 60.9651 10.2124 60.7598 10.2186ZM37.0908 19.4241C34.9838 19.4241 32.8974 19.8391 30.9508 20.6455C29.0041 21.4518 27.2354 22.6337 25.7456 24.1236C24.2558 25.6136 23.074 27.3824 22.2677 29.329C21.4615 31.2757 21.0466 33.3621 21.0468 35.4691C21.0468 37.576 21.4617 39.6623 22.268 41.6089C23.0743 43.5554 24.2561 45.3241 25.7459 46.8139C28.7548 49.8228 32.8356 51.5131 37.0908 51.5131C41.3459 51.5131 45.4268 49.8228 48.4356 46.8139C51.4444 43.8051 53.1348 39.7242 53.1348 35.4691C53.1349 33.3621 52.72 31.2757 51.9138 29.329C51.1075 27.3824 49.9258 25.6136 48.4359 24.1236C46.9461 22.6337 45.1774 21.4518 43.2308 20.6455C41.2841 19.8391 39.1978 19.4241 37.0908 19.4241ZM61.8868 19.6448C61.5932 19.6355 61.3032 19.7105 61.0509 19.861L54.1376 23.8527C53.9568 23.9503 53.7974 24.0832 53.6689 24.2435C53.5403 24.4038 53.4452 24.5882 53.3892 24.7859C53.3332 24.9836 53.3175 25.1905 53.3428 25.3944C53.3682 25.5983 53.4342 25.795 53.5369 25.973C53.6397 26.1509 53.777 26.3064 53.9409 26.4303C54.1048 26.5542 54.2919 26.644 54.4911 26.6944C54.6903 26.7447 54.8976 26.7546 55.1007 26.7234C55.3037 26.6922 55.4985 26.6207 55.6734 26.5129L62.5869 22.5221C62.7662 22.4218 62.9236 22.2865 63.0498 22.1243C63.1759 21.9621 63.2683 21.7762 63.3213 21.5777C63.3744 21.3792 63.3871 21.172 63.3586 20.9685C63.3302 20.7649 63.2612 20.5692 63.1558 20.3928C63.0239 20.1718 62.8385 19.9875 62.6168 19.8568C62.3951 19.7261 62.144 19.6532 61.8868 19.6448ZM12.4018 19.6457C12.0571 19.633 11.7182 19.7366 11.4396 19.9398C11.1609 20.1431 10.9588 20.4341 10.8656 20.7662C10.7725 21.0983 10.7938 21.452 10.9261 21.7705C11.0583 22.089 11.2939 22.3538 11.5949 22.5221L18.5074 26.5129C18.6823 26.6176 18.8763 26.6864 19.078 26.7154C19.2798 26.7443 19.4853 26.7329 19.6825 26.6816C19.8798 26.6304 20.0649 26.5405 20.2271 26.417C20.3893 26.2935 20.5253 26.139 20.6271 25.9625C20.729 25.786 20.7948 25.591 20.8205 25.3888C20.8463 25.1866 20.8316 24.9813 20.7773 24.7849C20.7229 24.5884 20.6301 24.4047 20.5041 24.2445C20.3781 24.0843 20.2214 23.9508 20.0433 23.8517L13.1308 19.8609C12.9094 19.729 12.6584 19.6548 12.4008 19.6453L12.4018 19.6457ZM9.45206 26.5365C9.08073 26.5456 8.72525 26.6888 8.45139 26.9397C8.17752 27.1906 8.00383 27.5323 7.96245 27.9014C7.92107 28.2705 8.0148 28.6422 8.2263 28.9475C8.4378 29.2528 8.75274 29.4712 9.11285 29.5622L16.8223 31.6282C17.0181 31.6837 17.2231 31.6997 17.4252 31.6753C17.6273 31.6509 17.8226 31.5866 17.9996 31.4861C18.1766 31.3856 18.3319 31.2509 18.4565 31.0898C18.581 30.9288 18.6723 30.7446 18.7251 30.548C18.7778 30.3513 18.7909 30.1462 18.7637 29.9444C18.7365 29.7427 18.6694 29.5483 18.5665 29.3727C18.4635 29.1971 18.3266 29.0437 18.1638 28.9214C18.0011 28.7991 17.8156 28.7104 17.6183 28.6604L9.90797 26.5944C9.75977 26.5524 9.60606 26.5329 9.45206 26.5365ZM64.6821 26.5365C64.5438 26.5374 64.4063 26.5568 64.2732 26.5944L56.562 28.6604C56.3646 28.7104 56.1791 28.799 56.0163 28.9213C55.8534 29.0436 55.7165 29.197 55.6135 29.3726C55.5105 29.5482 55.4434 29.7426 55.4162 29.9444C55.3889 30.1462 55.402 30.3514 55.4548 30.548C55.5075 30.7447 55.5988 30.9289 55.7234 31.09C55.848 31.2511 56.0033 31.3858 56.1804 31.4863C56.3575 31.5868 56.5528 31.6511 56.755 31.6755C56.9571 31.6998 57.1621 31.6838 57.358 31.6282L65.0683 29.5622C65.2675 29.5118 65.4546 29.4219 65.6185 29.2979C65.7823 29.1738 65.9196 29.0182 66.0223 28.8401C66.1249 28.6621 66.1908 28.4653 66.216 28.2613C66.2412 28.0574 66.2253 27.8504 66.1691 27.6527C66.0772 27.3298 65.8821 27.0458 65.6136 26.8442C65.3451 26.6426 65.0178 26.5346 64.6821 26.5365ZM3.57506 33.932C3.3715 33.9292 3.16939 33.9668 2.9805 34.0428C2.79161 34.1187 2.61969 34.2314 2.47473 34.3744C2.32977 34.5173 2.21467 34.6876 2.13611 34.8754C2.05754 35.0633 2.01709 35.2648 2.01709 35.4684C2.01709 35.672 2.05754 35.8735 2.13611 36.0613C2.21467 36.2492 2.32977 36.4195 2.47473 36.5624C2.61969 36.7054 2.79161 36.8181 2.9805 36.894C3.16939 36.9699 3.3715 37.0076 3.57506 37.0047H16.5191C16.7226 37.0076 16.9247 36.9699 17.1136 36.894C17.3025 36.8181 17.4744 36.7054 17.6194 36.5624C17.7643 36.4195 17.8794 36.2492 17.958 36.0613C18.0366 35.8735 18.077 35.672 18.077 35.4684C18.077 35.2648 18.0366 35.0633 17.958 34.8754C17.8794 34.6876 17.7643 34.5173 17.6194 34.3744C17.4744 34.2314 17.3025 34.1187 17.1136 34.0428C16.9247 33.9668 16.7226 33.9292 16.5191 33.932H3.57506ZM57.6611 33.932C57.4575 33.9292 57.2554 33.9668 57.0665 34.0428C56.8776 34.1187 56.7057 34.2314 56.5607 34.3744C56.4158 34.5173 56.3007 34.6876 56.2221 34.8754C56.1436 35.0633 56.1031 35.2648 56.1031 35.4684C56.1031 35.672 56.1436 35.8735 56.2221 36.0613C56.3007 36.2492 56.4158 36.4195 56.5607 36.5624C56.7057 36.7054 56.8776 36.8181 57.0665 36.894C57.2554 36.9699 57.4575 37.0076 57.6611 37.0047H70.6051C70.8106 37.0077 71.0147 36.9694 71.2052 36.8921C71.3957 36.8147 71.5687 36.7 71.714 36.5546C71.8593 36.4091 71.974 36.2361 72.0512 36.0455C72.1284 35.855 72.1666 35.6509 72.1636 35.4453C72.1575 35.038 71.9898 34.6498 71.6976 34.366C71.4053 34.0823 71.0124 33.9262 70.6051 33.932H57.6611ZM17.2321 39.2507C17.0935 39.2515 16.9557 39.2709 16.8223 39.3086L9.11288 41.3746C8.91468 41.4238 8.72827 41.5119 8.56453 41.6339C8.40079 41.7559 8.263 41.9094 8.15924 42.0852C8.05548 42.2611 7.98782 42.4559 7.96021 42.6582C7.93259 42.8606 7.94559 43.0664 7.99843 43.2636C8.05127 43.4608 8.1429 43.6456 8.26796 43.807C8.39302 43.9684 8.54902 44.1033 8.72681 44.2038C8.9046 44.3042 9.10063 44.3682 9.30344 44.392C9.50625 44.4158 9.71175 44.399 9.90797 44.3424L17.6183 42.2764C17.9819 42.1841 18.2992 41.9619 18.5103 41.6517C18.7214 41.3415 18.8117 40.9648 18.7642 40.5926C18.7167 40.2205 18.5346 39.8785 18.2524 39.6314C17.9702 39.3842 17.6072 39.2488 17.2321 39.2507ZM56.9031 39.2507C56.5317 39.2596 56.1761 39.4027 55.9021 39.6535C55.628 39.9044 55.4542 40.246 55.4127 40.6152C55.3712 40.9844 55.4649 41.3561 55.6763 41.6615C55.8878 41.9669 56.2028 42.1854 56.563 42.2764L64.2723 44.3424C64.4682 44.3979 64.6731 44.4139 64.8752 44.3895C65.0773 44.3651 65.2726 44.3008 65.4496 44.2003C65.6267 44.0998 65.782 43.9651 65.9065 43.804C66.031 43.643 66.1224 43.4588 66.1751 43.2621C66.2278 43.0655 66.241 42.8604 66.2137 42.6586C66.1865 42.4569 66.1195 42.2625 66.0165 42.0869C65.9135 41.9113 65.7766 41.7579 65.6139 41.6356C65.4511 41.5133 65.2657 41.4246 65.0683 41.3746L57.358 39.3086C57.2101 39.2667 57.0568 39.2472 56.9031 39.2507ZM19.3431 44.2076C19.0495 44.1983 18.7595 44.2734 18.5073 44.4238L11.5948 48.4146C11.4166 48.5137 11.26 48.6472 11.134 48.8074C11.008 48.9676 10.9151 49.1513 10.8608 49.3477C10.8065 49.5442 10.7918 49.7495 10.8175 49.9517C10.8433 50.1538 10.909 50.3489 11.0109 50.5254C11.1128 50.7019 11.2488 50.8564 11.411 50.9799C11.5731 51.1033 11.7582 51.1933 11.9555 51.2445C12.1528 51.2958 12.3583 51.3072 12.56 51.2783C12.7618 51.2493 12.9558 51.1805 13.1307 51.0758L20.0432 47.085C20.3365 46.9213 20.5681 46.6659 20.7024 46.358C20.8368 46.0501 20.8665 45.7066 20.7871 45.3802C20.7077 45.0538 20.5235 44.7624 20.2626 44.5506C20.0018 44.3389 19.6788 44.2183 19.3431 44.2076ZM54.9451 44.2076C54.6 44.1943 54.2606 44.2975 53.9814 44.5008C53.7022 44.704 53.4997 44.9953 53.4064 45.3277C53.313 45.6601 53.3344 46.0143 53.467 46.3331C53.5996 46.6519 53.8358 46.9168 54.1373 47.0849L61.0497 51.0757C61.2245 51.1766 61.4174 51.2422 61.6174 51.2685C61.8175 51.2949 62.0207 51.2816 62.2157 51.2294C62.4106 51.1772 62.5933 51.0871 62.7534 50.9642C62.9135 50.8414 63.0478 50.6883 63.1487 50.5135C63.2496 50.3388 63.3151 50.1459 63.3415 49.9459C63.3679 49.7458 63.3546 49.5425 63.3024 49.3476C63.2501 49.1527 63.1601 48.97 63.0372 48.8099C62.9144 48.6498 62.7613 48.5154 62.5865 48.4145L55.674 44.4237C55.453 44.2917 55.2023 44.2175 54.9451 44.2076ZM51.6209 48.4625C51.3151 48.4625 51.0162 48.5537 50.7625 48.7244C50.5089 48.8952 50.3119 49.1378 50.1969 49.4212C50.0819 49.7045 50.054 50.0157 50.1169 50.315C50.1798 50.6142 50.3305 50.8879 50.5499 51.101L59.7029 60.2531C59.8447 60.3993 60.0143 60.5158 60.2016 60.5958C60.3889 60.6759 60.5902 60.7179 60.7939 60.7194C60.9976 60.7209 61.1996 60.6819 61.388 60.6046C61.5765 60.5274 61.7478 60.4134 61.8918 60.2694C62.0358 60.1253 62.1498 59.9541 62.227 59.7656C62.3043 59.5772 62.3433 59.3752 62.3418 59.1715C62.3403 58.9678 62.2983 58.7665 62.2182 58.5792C62.1382 58.3918 62.0217 58.2223 61.8756 58.0804L52.7225 48.9283C52.5794 48.781 52.4081 48.6638 52.2189 48.5838C52.0297 48.5038 51.8263 48.4626 51.6209 48.4625ZM22.5149 48.4635C22.1157 48.4752 21.7367 48.642 21.4584 48.9284L12.3054 58.0805C12.1608 58.2228 12.0458 58.3923 11.9671 58.5793C11.8884 58.7662 11.8474 58.9669 11.8466 59.1698C11.8459 59.3726 11.8852 59.5736 11.9625 59.7612C12.0398 59.9487 12.1535 60.1191 12.2969 60.2625C12.4404 60.4059 12.6108 60.5195 12.7984 60.5967C12.986 60.6739 13.187 60.7132 13.3899 60.7124C13.5927 60.7115 13.7934 60.6705 13.9803 60.5917C14.1673 60.5129 14.3367 60.3978 14.479 60.2532L23.6311 51.1011C23.8531 50.8853 24.0047 50.6075 24.0661 50.304C24.1275 50.0006 24.0958 49.6856 23.9751 49.4005C23.8545 49.1154 23.6505 48.8734 23.3899 48.7062C23.1293 48.539 22.8243 48.4543 22.5149 48.4635ZM26.8295 51.728C26.5537 51.7256 26.2824 51.7975 26.0439 51.9361C25.8055 52.0747 25.6088 52.275 25.4745 52.5158L21.4837 59.4283C21.379 59.6032 21.3102 59.7972 21.2812 59.9989C21.2523 60.2007 21.2637 60.4062 21.315 60.6035C21.3662 60.8007 21.4561 60.9858 21.5796 61.148C21.7031 61.3102 21.8576 61.4462 22.0341 61.548C22.2106 61.6499 22.4057 61.7157 22.6078 61.7414C22.81 61.7672 23.0153 61.7525 23.2117 61.6982C23.4082 61.6438 23.5918 61.551 23.752 61.425C23.9122 61.2989 24.0458 61.1423 24.1449 60.9642L28.1357 54.0517C28.2743 53.8195 28.3491 53.5547 28.3526 53.2843C28.3561 53.0138 28.2882 52.7473 28.1556 52.5115C28.0231 52.2757 27.8307 52.0791 27.5978 51.9415C27.365 51.8039 27.0999 51.7303 26.8295 51.728ZM47.3065 51.7299C47.0402 51.7401 46.7811 51.8194 46.5547 51.9601C46.3283 52.1007 46.1424 52.2978 46.0152 52.532C45.8881 52.7662 45.824 53.0294 45.8293 53.2959C45.8346 53.5623 45.9091 53.8228 46.0455 54.0518L50.0374 60.9643C50.135 61.1451 50.2679 61.3044 50.4281 61.433C50.5884 61.5615 50.7729 61.6566 50.9706 61.7126C51.1683 61.7686 51.3752 61.7844 51.5791 61.759C51.7829 61.7336 51.9797 61.6676 52.1576 61.5649C52.3356 61.4622 52.4911 61.3248 52.615 61.1609C52.7389 60.997 52.8287 60.8099 52.879 60.6107C52.9294 60.4115 52.9392 60.2042 52.9081 60.0012C52.8769 59.7981 52.8053 59.6033 52.6976 59.4284L48.7068 52.5159C48.5686 52.2685 48.3646 52.0641 48.1175 51.9254C47.8704 51.7867 47.5897 51.719 47.3065 51.7299ZM42.4454 53.7814C42.205 53.7758 41.9665 53.8267 41.7493 53.9301C41.5321 54.0334 41.3423 54.1863 41.195 54.3765C41.0477 54.5667 40.947 54.7888 40.9012 55.0249C40.8554 55.261 40.8657 55.5046 40.9313 55.7361L42.9973 63.4464C43.0464 63.6446 43.1345 63.831 43.2565 63.9947C43.3786 64.1585 43.532 64.2963 43.7079 64.4C43.8837 64.5038 44.0785 64.5714 44.2809 64.5991C44.4832 64.6267 44.689 64.6137 44.8862 64.5608C45.0835 64.508 45.2682 64.4164 45.4296 64.2913C45.5911 64.1662 45.7259 64.0102 45.8264 63.8325C45.9268 63.6547 45.9908 63.4586 46.0146 63.2558C46.0384 63.053 46.0216 62.8475 45.9651 62.6513L43.8991 54.941C43.8168 54.6154 43.6301 54.3257 43.3676 54.1163C43.1051 53.9069 42.7812 53.7893 42.4454 53.7814ZM31.8445 53.7823C31.7932 53.78 31.7419 53.7803 31.6907 53.7832C31.3632 53.8008 31.05 53.9226 30.7968 54.1309C30.5435 54.3393 30.3636 54.6231 30.2832 54.941L28.2173 62.6513C28.1607 62.8475 28.1439 63.0531 28.1677 63.2559C28.1915 63.4587 28.2555 63.6547 28.3559 63.8325C28.4564 64.0103 28.5913 64.1663 28.7527 64.2913C28.9141 64.4164 29.0989 64.508 29.2961 64.5609C29.4933 64.6137 29.6991 64.6267 29.9014 64.5991C30.1038 64.5715 30.2986 64.5038 30.4744 64.4001C30.6503 64.2963 30.8038 64.1585 30.9258 63.9948C31.0478 63.831 31.1359 63.6446 31.1851 63.4464L33.2511 55.7361C33.3142 55.5134 33.3262 55.2793 33.2861 55.0513C33.2461 54.8233 33.155 54.6073 33.0198 54.4194C32.8845 54.2315 32.7085 54.0767 32.505 53.9663C32.3015 53.856 32.0757 53.7931 31.8445 53.7823ZM37.0682 54.4815C36.6609 54.4876 36.2727 54.6552 35.9889 54.9475C35.7052 55.2397 35.5491 55.6327 35.5549 56.04V68.984C35.5521 69.1876 35.5898 69.3897 35.6657 69.5786C35.7416 69.7674 35.8543 69.9394 35.9973 70.0843C36.1402 70.2293 36.3106 70.3444 36.4984 70.4229C36.6862 70.5015 36.8877 70.542 37.0913 70.542C37.2949 70.542 37.4964 70.5015 37.6842 70.4229C37.8721 70.3444 38.0424 70.2293 38.1853 70.0843C38.3283 69.9394 38.441 69.7674 38.5169 69.5786C38.5929 69.3897 38.6305 69.1876 38.6277 68.984V56.04C38.6306 55.8344 38.5923 55.6304 38.515 55.4399C38.4376 55.2494 38.3229 55.0764 38.1775 54.931C38.0321 54.7857 37.859 54.671 37.6684 54.5938C37.4779 54.5166 37.2737 54.4784 37.0682 54.4815Z" fill="#F2C512"/>
<path d="M11.1491 59.0221H51.276C63.526 56.3447 59.8882 38.9991 47.9494 40.5181C44.0887 16.1221 17.8855 23.4011 16.1385 34.9045C-5.35255 33.5425 -1.93304 58.9411 11.1491 59.0221Z" fill="#75C1F4" fill-opacity="0.85"/>
</svg>
