<svg width="337" height="219" viewBox="0 0 337 219" fill="none" xmlns="http://www.w3.org/2000/svg">
<path d="M205.289 0.00341797C180.381 0.00349356 159.965 20.2044 159.965 45.0034C159.965 45.9883 160.159 46.9636 160.535 47.8735C160.912 48.7835 161.465 49.6103 162.161 50.3067C162.858 51.0032 163.684 51.5556 164.594 51.9325C165.504 52.3094 166.48 52.5034 167.465 52.5034C168.449 52.5034 169.425 52.3094 170.335 51.9325C171.245 51.5556 172.071 51.0032 172.768 50.3067C173.464 49.6103 174.017 48.7835 174.394 47.8735C174.771 46.9636 174.965 45.9883 174.965 45.0034C174.965 28.3812 188.418 15.0035 205.289 15.0034C222.161 15.0034 235.614 28.3812 235.614 45.0034C235.614 61.6257 222.161 75.0034 205.289 75.0034H7.49902C6.51411 75.0034 5.53884 75.1974 4.6289 75.5743C3.71895 75.9512 2.89215 76.5037 2.19571 77.2001C1.49927 77.8966 0.946832 78.7234 0.569923 79.6333C0.193014 80.5433 -0.000979044 81.5185 -0.000976562 82.5034C-0.000971551 84.4925 0.789204 86.4002 2.19573 87.8067C3.60225 89.2133 5.5099 90.0034 7.49902 90.0034H205.289C230.198 90.0034 250.614 69.8025 250.614 45.0034C250.614 20.2044 230.198 0.00338017 205.289 0.00341797Z" fill="black"/>
<path d="M297.342 43.9995C276.112 43.9996 258.403 60.6835 258.403 81.4995C258.403 82.4844 258.597 83.4597 258.973 84.3696C259.35 85.2796 259.903 86.1064 260.599 86.8028C261.296 87.4993 262.122 88.0517 263.032 88.4286C263.942 88.8055 264.918 88.9995 265.903 88.9995C266.887 88.9995 267.863 88.8055 268.773 88.4286C269.683 88.0517 270.509 87.4993 271.206 86.8028C271.902 86.1064 272.455 85.2796 272.832 84.3696C273.209 83.4597 273.403 82.4844 273.403 81.4995C273.403 69.1786 283.847 58.9995 297.342 58.9995C310.837 58.9995 321.281 69.1786 321.281 81.4995C321.281 93.8205 310.837 104 297.342 104H47.502C45.5128 104 43.6052 104.79 42.1987 106.196C40.7921 107.603 40.002 109.51 40.002 111.5C40.002 112.484 40.1959 113.46 40.5729 114.37C40.9498 115.28 41.5022 116.106 42.1986 116.803C42.8951 117.499 43.7219 118.052 44.6318 118.429C45.5418 118.806 46.517 119 47.502 119H297.342C318.572 119 336.281 102.316 336.281 81.4995C336.281 60.6834 318.572 43.9995 297.342 43.9995Z" fill="black"/>
<path d="M29.4971 133.003C27.5079 133.003 25.6003 133.793 24.1938 135.2C22.7873 136.606 21.9971 138.514 21.9971 140.503C21.9971 141.488 22.1911 142.463 22.568 143.373C22.9449 144.283 23.4973 145.11 24.1938 145.806C24.8902 146.503 25.717 147.055 26.6269 147.432C27.5369 147.809 28.5122 148.003 29.4971 148.003H237.681C253.487 148.003 265.998 160.36 265.998 175.633C265.998 190.907 253.487 203.271 237.681 203.271C221.875 203.271 209.364 190.907 209.364 175.633C209.364 173.644 208.574 171.737 207.167 170.33C205.761 168.924 203.853 168.133 201.864 168.133C199.875 168.133 197.967 168.924 196.561 170.33C195.154 171.737 194.364 173.644 194.364 175.633C194.364 199.171 213.923 218.271 237.681 218.271C261.439 218.271 280.998 199.171 280.998 175.633C280.998 152.096 261.439 133.003 237.681 133.003H29.4971Z" fill="black"/>
</svg>
